<mxfile host="app.diagrams.net" modified="2023-04-29T13:36:51.428Z" agent="Mozilla/5.0 (Windows NT 10.0) AppleWebKit/537.36 (KHTML, like Gecko) Chrome/109.0.0.0 Safari/537.36 Edg/109.0.1474.0" version="21.2.3" etag="yrMqVbUnTw-X9dTUxEs6" type="github">
  <diagram name="第 1 页" id="rc9eOtAti06bthRsw3-c">
    <mxGraphModel>
      <root>
        <mxCell id="0" />
        <mxCell id="1" parent="0" />
      </root>
    </mxGraphModel>
  </diagram>
</mxfile>
